<svg width="149" height="29" viewBox="0 0 149 29" fill="none" xmlns="http://www.w3.org/2000/svg">
<path d="M-2.98023e-08 22.8594V2.49574H12.6278V5.14062H3.07244V11.3452H11.723V13.9801H3.07244V22.8594H-2.98023e-08ZM19.1406 2.49574V22.8594H16.1676V2.49574H19.1406ZM29.5735 23.1676C28.1417 23.1676 26.8922 22.8395 25.8249 22.1832C24.7577 21.527 23.9291 20.6089 23.3391 19.429C22.7492 18.2491 22.4542 16.8703 22.4542 15.2926C22.4542 13.7083 22.7492 12.3229 23.3391 11.1364C23.9291 9.94981 24.7577 9.02841 25.8249 8.37216C26.8922 7.71591 28.1417 7.38778 29.5735 7.38778C31.0053 7.38778 32.2549 7.71591 33.3221 8.37216C34.3893 9.02841 35.2179 9.94981 35.8079 11.1364C36.3978 12.3229 36.6928 13.7083 36.6928 15.2926C36.6928 16.8703 36.3978 18.2491 35.8079 19.429C35.2179 20.6089 34.3893 21.527 33.3221 22.1832C32.2549 22.8395 31.0053 23.1676 29.5735 23.1676ZM29.5835 20.6719C30.5115 20.6719 31.2804 20.4266 31.8903 19.9361C32.5001 19.4455 32.9509 18.7926 33.2425 17.9773C33.5408 17.1619 33.69 16.2637 33.69 15.2827C33.69 14.3082 33.5408 13.4134 33.2425 12.598C32.9509 11.776 32.5001 11.1165 31.8903 10.6193C31.2804 10.1222 30.5115 9.87358 29.5835 9.87358C28.6488 9.87358 27.8732 10.1222 27.2567 10.6193C26.6469 11.1165 26.1928 11.776 25.8945 12.598C25.6029 13.4134 25.457 14.3082 25.457 15.2827C25.457 16.2637 25.6029 17.1619 25.8945 17.9773C26.1928 18.7926 26.6469 19.4455 27.2567 19.9361C27.8732 20.4266 28.6488 20.6719 29.5835 20.6719ZM44.456 23.1974C43.4882 23.1974 42.6132 23.0185 41.831 22.6605C41.0488 22.2959 40.429 21.7689 39.9716 21.0795C39.5208 20.3902 39.2955 19.545 39.2955 18.544C39.2955 17.6823 39.4612 16.973 39.7926 16.4162C40.1241 15.8594 40.5715 15.4186 41.1349 15.0938C41.6984 14.7689 42.3281 14.5237 43.0241 14.358C43.7202 14.1922 44.4295 14.0663 45.152 13.9801C46.0668 13.8741 46.8092 13.7879 47.3793 13.7216C47.9493 13.6487 48.3636 13.5327 48.6222 13.3736C48.8807 13.2145 49.0099 12.956 49.0099 12.598V12.5284C49.0099 11.66 48.7647 10.9872 48.2741 10.5099C47.7902 10.0327 47.0677 9.79403 46.1065 9.79403C45.1056 9.79403 44.3168 10.0161 43.7401 10.4602C43.17 10.8977 42.7756 11.3849 42.5568 11.9219L39.7628 11.2855C40.0942 10.3575 40.5781 9.60843 41.2145 9.03835C41.8575 8.46165 42.5966 8.04403 43.4318 7.78551C44.267 7.52036 45.1454 7.38778 46.0668 7.38778C46.6766 7.38778 47.3229 7.4607 48.0057 7.60653C48.6951 7.74574 49.3381 8.00426 49.9347 8.3821C50.5379 8.75994 51.0317 9.30019 51.4162 10.0028C51.8007 10.6989 51.9929 11.6037 51.9929 12.7173V22.8594H49.0895V20.7713H48.9702C48.7779 21.1558 48.4896 21.5336 48.1051 21.9048C47.7206 22.276 47.2268 22.5843 46.6236 22.8295C46.0204 23.0748 45.2978 23.1974 44.456 23.1974ZM45.1023 20.8111C45.9242 20.8111 46.6269 20.6487 47.2102 20.3239C47.8002 19.9991 48.2476 19.5748 48.5526 19.0511C48.8641 18.5208 49.0199 17.9541 49.0199 17.3509V15.3821C48.9138 15.4882 48.7083 15.5876 48.4034 15.6804C48.1051 15.7666 47.7637 15.8428 47.3793 15.9091C46.9948 15.9687 46.6203 16.0251 46.2557 16.0781C45.8911 16.1245 45.5862 16.1643 45.3409 16.1974C44.7642 16.2704 44.2372 16.393 43.7599 16.5653C43.2893 16.7377 42.9115 16.9863 42.6264 17.3111C42.348 17.6293 42.2088 18.0535 42.2088 18.5838C42.2088 19.3196 42.4806 19.8764 43.0241 20.2543C43.5677 20.6255 44.2604 20.8111 45.1023 20.8111ZM63.082 7.58665V9.97301H54.7397V7.58665H63.082ZM56.9769 3.92756H59.9499V18.375C59.9499 18.9517 60.0361 19.3859 60.2085 19.6776C60.3808 19.9626 60.6029 20.1581 60.8746 20.2642C61.1531 20.3636 61.4547 20.4134 61.7795 20.4134C62.0181 20.4134 62.2269 20.3968 62.4059 20.3636C62.5849 20.3305 62.7241 20.304 62.8235 20.2841L63.3604 22.7401C63.1881 22.8063 62.9428 22.8726 62.6246 22.9389C62.3065 23.0118 61.9087 23.0516 61.4315 23.0582C60.6493 23.0715 59.9201 22.9323 59.244 22.6406C58.5678 22.349 58.021 21.8982 57.6033 21.2884C57.1857 20.6785 56.9769 19.9129 56.9769 18.9915V3.92756ZM66.3707 22.8594V7.58665H69.3438V22.8594H66.3707ZM67.8722 5.23011C67.3551 5.23011 66.911 5.05776 66.5398 4.71307C66.1752 4.36174 65.9929 3.94413 65.9929 3.46023C65.9929 2.9697 66.1752 2.55208 66.5398 2.20739C66.911 1.85606 67.3551 1.6804 67.8722 1.6804C68.3892 1.6804 68.83 1.85606 69.1946 2.20739C69.5658 2.55208 69.7514 2.9697 69.7514 3.46023C69.7514 3.94413 69.5658 4.36174 69.1946 4.71307C68.83 5.05776 68.3892 5.23011 67.8722 5.23011ZM76.3164 13.7912V22.8594H73.3434V7.58665H76.1971V10.0724H76.386C76.7373 9.26373 77.2875 8.61411 78.0366 8.12358C78.7923 7.63305 79.7435 7.38778 80.8903 7.38778C81.931 7.38778 82.8424 7.60653 83.6246 8.04403C84.4068 8.47491 85.0134 9.1179 85.4442 9.97301C85.8751 10.8281 86.0906 11.8854 86.0906 13.1449V22.8594H83.1175V13.5028C83.1175 12.3958 82.8292 11.5308 82.2525 10.9077C81.6758 10.2779 80.8836 9.96307 79.8761 9.96307C79.1867 9.96307 78.5735 10.1122 78.0366 10.4105C77.5063 10.7088 77.0853 11.1463 76.7738 11.723C76.4689 12.2931 76.3164 12.9825 76.3164 13.7912ZM96.4812 28.9048C95.2681 28.9048 94.2241 28.7457 93.3491 28.4276C92.4807 28.1094 91.7714 27.6884 91.2212 27.1648C90.671 26.6411 90.2601 26.0677 89.9883 25.4446L92.5437 24.3906C92.7227 24.6823 92.9613 24.9905 93.2596 25.3153C93.5645 25.6468 93.9755 25.9285 94.4925 26.1605C95.0162 26.3925 95.689 26.5085 96.511 26.5085C97.6379 26.5085 98.5692 26.2334 99.305 25.6832C100.041 25.1397 100.409 24.2713 100.409 23.0781V20.0753H100.22C100.041 20.4001 99.7823 20.7614 99.4442 21.1591C99.1128 21.5568 98.6554 21.9015 98.0721 22.1932C97.4888 22.4848 96.7298 22.6307 95.7951 22.6307C94.5887 22.6307 93.5015 22.349 92.5337 21.7855C91.5726 21.2154 90.8103 20.3769 90.2468 19.2699C89.69 18.1562 89.4116 16.7874 89.4116 15.1634C89.4116 13.5393 89.6867 12.1473 90.2369 10.9872C90.7937 9.82718 91.556 8.93892 92.5238 8.32244C93.4916 7.69934 94.5887 7.38778 95.815 7.38778C96.7629 7.38778 97.5285 7.54688 98.1119 7.86506C98.6952 8.17661 99.1493 8.54119 99.4741 8.95881C99.8055 9.37642 100.061 9.74432 100.24 10.0625H100.458V7.58665H103.372V23.1974C103.372 24.5099 103.067 25.5871 102.457 26.429C101.847 27.2708 101.022 27.8939 99.9812 28.2983C98.9471 28.7027 97.7804 28.9048 96.4812 28.9048ZM96.4513 20.1648C97.3065 20.1648 98.029 19.9659 98.619 19.5682C99.2156 19.1638 99.6663 18.5871 99.9712 17.8381C100.283 17.0824 100.439 16.1776 100.439 15.1236C100.439 14.0961 100.286 13.1913 99.9812 12.4091C99.6763 11.6269 99.2288 11.017 98.6388 10.5795C98.0489 10.1354 97.3197 9.91335 96.4513 9.91335C95.5565 9.91335 94.8107 10.1454 94.2141 10.6094C93.6175 11.0668 93.1668 11.6899 92.8619 12.4787C92.5636 13.2675 92.4144 14.1491 92.4144 15.1236C92.4144 16.1245 92.5669 17.0028 92.8718 17.7585C93.1767 18.5142 93.6275 19.1042 94.2241 19.5284C94.8273 19.9527 95.5697 20.1648 96.4513 20.1648ZM115.634 12.6776C115.634 10.1851 115.962 7.89157 116.619 5.79688C117.275 3.70218 118.233 1.76989 119.492 0H122.217C121.726 0.65625 121.269 1.46165 120.844 2.41619C120.42 3.37074 120.049 4.41809 119.731 5.55824C119.413 6.69176 119.164 7.86837 118.985 9.08807C118.806 10.3011 118.717 11.4976 118.717 12.6776C118.717 14.2552 118.872 15.8527 119.184 17.4702C119.496 19.0876 119.916 20.589 120.447 21.9744C120.977 23.3598 121.567 24.4901 122.217 25.3651H119.492C118.233 23.5952 117.275 21.6629 116.619 19.5682C115.962 17.4735 115.634 15.1766 115.634 12.6776ZM125.311 22.8594V20.6321L132.202 13.4929C132.938 12.7173 133.544 12.0379 134.022 11.4545C134.506 10.8646 134.867 10.3045 135.105 9.77415C135.344 9.24384 135.463 8.6804 135.463 8.08381C135.463 7.40767 135.304 6.82434 134.986 6.33381C134.668 5.83665 134.234 5.45549 133.684 5.19034C133.133 4.91856 132.514 4.78267 131.824 4.78267C131.095 4.78267 130.459 4.93182 129.915 5.23011C129.372 5.52841 128.954 5.94934 128.662 6.4929C128.371 7.03646 128.225 7.67282 128.225 8.40199H125.292C125.292 7.1624 125.577 6.0786 126.147 5.15057C126.717 4.22254 127.499 3.50331 128.493 2.9929C129.488 2.47585 130.618 2.21733 131.884 2.21733C133.163 2.21733 134.29 2.47254 135.265 2.98295C136.246 3.48674 137.011 4.17614 137.561 5.05114C138.112 5.91951 138.387 6.90057 138.387 7.99432C138.387 8.75 138.244 9.48911 137.959 10.2116C137.681 10.9342 137.194 11.7396 136.498 12.6278C135.801 13.5095 134.834 14.58 133.594 15.8395L129.547 20.0753V20.2244H138.715V22.8594H125.311ZM148.24 12.6776C148.24 15.1766 147.912 17.4735 147.256 19.5682C146.6 21.6629 145.642 23.5952 144.382 25.3651H141.658C142.149 24.7088 142.606 23.9034 143.03 22.9489C143.454 21.9943 143.826 20.9503 144.144 19.8168C144.462 18.6766 144.711 17.4967 144.89 16.277C145.069 15.0573 145.158 13.8575 145.158 12.6776C145.158 11.1065 145.002 9.51231 144.691 7.89489C144.379 6.27746 143.958 4.77604 143.428 3.39062C142.898 2.00521 142.308 0.875 141.658 0H144.382C145.642 1.76989 146.6 3.70218 147.256 5.79688C147.912 7.89157 148.24 10.1851 148.24 12.6776Z" fill="#1F121A"/>
</svg>
